# Blender v2.79 (sub 0) OBJ File: ''
# www.blender.org
mtllib planet_Terrestrial1.mtl
o Sphere
v 0.331413 -0.923880 -0.191342
v 0.382683 -0.923880 -0.000000
v 0.001395 -0.988541 -0.000000
v 0.001209 -0.988541 -0.000698
v 0.000000 -0.707107 -0.707107
v 0.000000 -0.382684 -0.923880
v 0.461940 -0.382684 -0.800103
v 0.353553 -0.707107 -0.612372
v 0.000000 0.000000 -1.000000
v 0.000000 0.382683 -0.923880
v 0.461940 0.382683 -0.800103
v 0.500000 0.000000 -0.866025
v 0.000000 0.707107 -0.707107
v 0.000000 0.923880 -0.382683
v 0.191342 0.923880 -0.331414
v 0.353553 0.707107 -0.612372
v 0.000000 -0.923880 -0.382683
v 0.191342 -0.923880 -0.331414
v -0.191342 0.923880 -0.331414
v -0.000698 0.988541 -0.001209
v 0.000000 0.988541 -0.001396
v 0.331413 0.923880 -0.191342
v 0.612372 0.707107 -0.353553
v 0.612372 -0.707107 -0.353553
v 0.866025 0.000000 -0.500000
v 0.800103 -0.382684 -0.461940
v 0.800103 0.382683 -0.461940
v -0.331413 -0.923880 -0.191342
v -0.191342 -0.923880 -0.331414
v -0.000698 -0.988541 -0.001209
v -0.001208 -0.988541 -0.000698
v -0.382683 0.923880 0.000000
v -0.331413 0.923880 0.191341
v -0.001208 0.988541 0.000698
v -0.001395 0.988541 0.000000
v 0.707107 -0.707107 -0.000000
v 1.000000 0.000000 0.000000
v 0.923879 -0.382684 -0.000000
v 0.707107 0.707107 0.000000
v 0.923879 0.382683 0.000000
v -0.191342 0.923880 0.331413
v -0.000698 0.988541 0.001208
v 0.331413 -0.923880 0.191342
v 0.001209 -0.988541 0.000698
v 0.382683 0.923880 0.000000
v 0.000698 -0.988541 -0.001209
v 0.000698 0.988541 -0.001209
v 0.800103 -0.382684 0.461940
v 0.612372 -0.707107 0.353553
v 0.800103 0.382683 0.461940
v 0.866025 -0.000000 0.500000
v 0.331413 0.923880 0.191341
v 0.612372 0.707107 0.353553
v 0.461940 -0.382684 0.800103
v 0.353553 -0.707107 0.612372
v 0.461940 0.382683 0.800103
v 0.500000 -0.000000 0.866025
v 0.191342 0.923880 0.331413
v 0.353553 0.707107 0.612372
v 0.191342 -0.923880 0.331413
v -0.331413 0.923880 -0.191342
v -0.001208 0.988541 -0.000698
v 0.001209 0.988541 -0.000698
v 0.001395 0.988541 0.000000
v 0.000000 -0.707107 0.707106
v 0.000000 -0.923880 0.382683
v 0.000000 -0.000000 1.000000
v 0.000000 -0.382684 0.923879
v 0.000000 0.707107 0.707106
v 0.000000 0.382683 0.923879
v 0.000000 -0.988541 -0.001396
v -0.191342 -0.923880 0.331413
v -0.331413 -0.923880 0.191341
v -0.001208 -0.988541 0.000698
v -0.000698 -0.988541 0.001208
v 0.000000 0.923880 0.382683
v -0.500000 -0.000000 0.866025
v -0.461940 -0.382684 0.800103
v -0.353553 0.707107 0.612372
v -0.461940 0.382683 0.800103
v -0.382683 -0.923880 -0.000000
v -0.001395 -0.988541 -0.000000
v 0.001209 0.988541 0.000698
v -0.353553 -0.707107 0.612372
v -0.800103 -0.382684 0.461940
v -0.612372 -0.707107 0.353553
v -0.800103 0.382683 0.461940
v -0.866025 -0.000000 0.500000
v -0.612372 0.707107 0.353553
v -0.923879 0.382683 0.000000
v -1.000000 0.000000 0.000000
v -0.707107 0.707107 0.000000
v -0.707107 -0.707107 -0.000000
v -0.923879 -0.382684 -0.000000
v 0.000698 -0.988541 0.001208
v 0.000000 -0.988541 0.001395
v -0.612372 -0.707107 -0.353554
v -0.866025 0.000000 -0.500000
v -0.800103 -0.382684 -0.461940
v -0.612372 0.707107 -0.353554
v -0.800103 0.382683 -0.461940
v 0.000698 0.988541 0.001208
v 0.000000 0.988541 0.001395
v -0.353553 0.707107 -0.612373
v -0.461940 0.382683 -0.800103
v -0.461940 -0.382684 -0.800103
v -0.353553 -0.707107 -0.612373
v -0.500000 0.000000 -0.866025
vt 0.333333 0.125000
vt 0.250000 0.125000
vt 0.250018 0.000453
vt 0.333348 0.000453
vt 0.500000 0.250000
vt 0.500000 0.375000
vt 0.416667 0.375000
vt 0.416667 0.250000
vt 0.500000 0.500000
vt 0.500000 0.625000
vt 0.416667 0.625000
vt 0.416667 0.500000
vt 0.500000 0.750000
vt 0.500000 0.875000
vt 0.416667 0.875000
vt 0.416667 0.750000
vt 0.500000 0.125000
vt 0.416667 0.125000
vt 0.583333 0.875000
vt 0.583324 0.999547
vt 0.499999 0.999547
vt 0.333333 0.875000
vt 0.333333 0.750000
vt 0.333333 0.250000
vt 0.333333 0.500000
vt 0.333333 0.375000
vt 0.333333 0.625000
vt 0.666667 0.125000
vt 0.583333 0.125000
vt 0.583324 0.000453
vt 0.666651 0.000453
vt 0.750000 0.875000
vt 0.833333 0.875000
vt 0.833318 0.999547
vt 0.749982 0.999547
vt 0.250000 0.250000
vt 0.250000 0.500000
vt 0.250000 0.375000
vt 0.250000 0.750000
vt 0.250000 0.625000
vt 0.916667 0.875000
vt 0.916658 0.999547
vt 0.166667 0.125000
vt 0.166682 0.000453
vt 0.250000 0.875000
vt 0.416675 0.000453
vt 0.416675 0.999547
vt 0.166667 0.375000
vt 0.166667 0.250000
vt 0.166667 0.625000
vt 0.166667 0.500000
vt 0.166667 0.875000
vt 0.166667 0.750000
vt 0.083333 0.375000
vt 0.083333 0.250000
vt 0.083333 0.625000
vt 0.083333 0.500000
vt 0.083333 0.875000
vt 0.083333 0.750000
vt 0.083333 0.125000
vt 0.666667 0.875000
vt 0.666651 0.999547
vt 0.333348 0.999547
vt 0.250018 0.999547
vt 0.000000 0.250000
vt 0.000000 0.125000
vt 0.000000 0.500000
vt 0.000000 0.375000
vt 0.000000 0.750000
vt 0.000000 0.625000
vt 0.499999 0.000453
vt 0.916667 0.125000
vt 0.833333 0.125000
vt 0.833318 0.000453
vt 0.916658 0.000453
vt 0.000000 0.875000
vt 1.000000 0.375000
vt 1.000000 0.500000
vt 0.916667 0.500000
vt 0.916667 0.375000
vt 1.000000 0.625000
vt 1.000000 0.750000
vt 0.916667 0.750000
vt 0.916667 0.625000
vt 0.750000 0.125000
vt 0.749982 0.000453
vt 0.166683 0.999547
vt 1.000000 0.250000
vt 0.916667 0.250000
vt 1.000000 0.875000
vt 1.000000 0.125000
vt 0.833333 0.375000
vt 0.833333 0.250000
vt 0.833333 0.625000
vt 0.833333 0.500000
vt 0.833333 0.750000
vt 0.750000 0.625000
vt 0.750000 0.500000
vt 0.750000 0.750000
vt 0.750000 0.250000
vt 0.750000 0.375000
vt 0.083343 0.000453
vt 1.000000 0.000453
vt 0.666667 0.250000
vt 0.666667 0.500000
vt 0.666667 0.375000
vt 0.666667 0.750000
vt 0.666667 0.625000
vt 0.000001 0.000453
vt 0.083343 0.999547
vt 0.000001 0.999547
vt 0.583333 0.750000
vt 0.583333 0.625000
vt 0.583333 0.375000
vt 0.583333 0.250000
vt 0.583333 0.500000
vt 1.000000 0.999547
vn 0.3454 -0.9170 -0.1994
vn 0.3988 -0.9170 -0.0000
vn 0.1672 -0.9859 0.0000
vn 0.1448 -0.9859 -0.0836
vn 0.0000 -0.6913 -0.7226
vn 0.0000 -0.3718 -0.9283
vn 0.4642 -0.3718 -0.8040
vn 0.3613 -0.6913 -0.6258
vn 0.0000 0.0000 -1.0000
vn 0.0000 0.3718 -0.9283
vn 0.4642 0.3718 -0.8040
vn 0.5000 0.0000 -0.8660
vn 0.0000 0.6913 -0.7226
vn 0.0000 0.9170 -0.3988
vn 0.1994 0.9170 -0.3454
vn 0.3613 0.6913 -0.6258
vn 0.0000 -0.9170 -0.3988
vn 0.1994 -0.9170 -0.3454
vn -0.1994 0.9170 -0.3454
vn -0.0836 0.9859 -0.1448
vn 0.0000 0.9859 -0.1672
vn 0.3454 0.9170 -0.1994
vn 0.6258 0.6913 -0.3613
vn 0.6258 -0.6913 -0.3613
vn 0.8660 0.0000 -0.5000
vn 0.8040 -0.3718 -0.4642
vn 0.8040 0.3718 -0.4642
vn -0.3454 -0.9170 -0.1994
vn -0.1994 -0.9170 -0.3454
vn -0.0836 -0.9859 -0.1448
vn -0.1448 -0.9859 -0.0836
vn -0.3988 0.9170 0.0000
vn -0.3454 0.9170 0.1994
vn -0.1448 0.9859 0.0836
vn -0.1672 0.9859 0.0000
vn 0.7226 -0.6913 -0.0000
vn 1.0000 0.0000 0.0000
vn 0.9283 -0.3718 -0.0000
vn 0.7226 0.6913 0.0000
vn 0.9283 0.3718 0.0000
vn -0.1994 0.9170 0.3454
vn -0.0836 0.9859 0.1448
vn 0.3454 -0.9170 0.1994
vn 0.1448 -0.9859 0.0836
vn 0.3988 0.9170 0.0000
vn 0.0836 -0.9859 -0.1448
vn 0.0836 0.9859 -0.1448
vn 0.8040 -0.3718 0.4642
vn 0.6258 -0.6913 0.3613
vn 0.8040 0.3718 0.4642
vn 0.8660 0.0000 0.5000
vn 0.3454 0.9170 0.1994
vn 0.6258 0.6913 0.3613
vn 0.4642 -0.3718 0.8040
vn 0.3613 -0.6913 0.6258
vn 0.4642 0.3718 0.8040
vn 0.5000 0.0000 0.8660
vn 0.1994 0.9170 0.3454
vn 0.3613 0.6913 0.6258
vn 0.1994 -0.9170 0.3454
vn -0.3454 0.9170 -0.1994
vn -0.1448 0.9859 -0.0836
vn 0.1448 0.9859 -0.0836
vn 0.1672 0.9859 0.0000
vn 0.0000 -0.6913 0.7226
vn 0.0000 -0.9170 0.3988
vn 0.0000 0.0000 1.0000
vn 0.0000 -0.3718 0.9283
vn 0.0000 0.6913 0.7226
vn 0.0000 0.3718 0.9283
vn 0.0000 -0.9859 -0.1672
vn -0.1994 -0.9170 0.3454
vn -0.3454 -0.9170 0.1994
vn -0.1448 -0.9859 0.0836
vn -0.0836 -0.9859 0.1448
vn 0.0000 0.9170 0.3988
vn -0.5000 0.0000 0.8660
vn -0.4642 -0.3718 0.8040
vn -0.3613 0.6913 0.6258
vn -0.4642 0.3718 0.8040
vn -0.3988 -0.9170 0.0000
vn -0.1672 -0.9859 0.0000
vn 0.1448 0.9859 0.0836
vn -0.3613 -0.6913 0.6258
vn -0.8040 -0.3718 0.4642
vn -0.6258 -0.6913 0.3613
vn -0.8040 0.3718 0.4642
vn -0.8660 0.0000 0.5000
vn -0.6258 0.6913 0.3613
vn -0.9283 0.3718 0.0000
vn -1.0000 0.0000 0.0000
vn -0.7226 0.6913 0.0000
vn -0.7226 -0.6913 0.0000
vn -0.9283 -0.3718 -0.0000
vn 0.0836 -0.9859 0.1448
vn 0.0000 -0.9859 0.1672
vn -0.6258 -0.6913 -0.3613
vn -0.8660 0.0000 -0.5000
vn -0.8040 -0.3718 -0.4642
vn -0.6258 0.6913 -0.3613
vn -0.8040 0.3718 -0.4642
vn 0.0836 0.9859 0.1448
vn 0.0000 0.9859 0.1672
vn -0.3613 0.6913 -0.6258
vn -0.4642 0.3718 -0.8040
vn -0.4642 -0.3718 -0.8040
vn -0.3613 -0.6913 -0.6258
vn -0.5000 0.0000 -0.8660
usemtl lambert2SG
s 1
f 1/1/1 2/2/2 3/3/3 4/4/4
f 5/5/5 6/6/6 7/7/7 8/8/8
f 9/9/9 10/10/10 11/11/11 12/12/12
f 13/13/13 14/14/14 15/15/15 16/16/16
f 17/17/17 5/5/5 8/8/8 18/18/18
f 6/6/6 9/9/9 12/12/12 7/7/7
f 10/10/10 13/13/13 16/16/16 11/11/11
f 14/14/14 19/19/19 20/20/20 21/21/21
f 16/16/16 15/15/15 22/22/22 23/23/23
f 18/18/18 8/8/8 24/24/24 1/1/1
f 7/7/7 12/12/12 25/25/25 26/26/26
f 11/11/11 16/16/16 23/23/23 27/27/27
f 28/28/28 29/29/29 30/30/30 31/31/31
f 32/32/32 33/33/33 34/34/34 35/35/35
f 8/8/8 7/7/7 26/26/26 24/24/24
f 12/12/12 11/11/11 27/27/27 25/25/25
f 1/1/1 24/24/24 36/36/36 2/2/2
f 26/26/26 25/25/25 37/37/37 38/38/38
f 27/27/27 23/23/23 39/39/39 40/40/40
f 33/33/33 41/41/41 42/42/42 34/34/34
f 2/2/2 43/43/43 44/44/44 3/3/3
f 24/24/24 26/26/26 38/38/38 36/36/36
f 25/25/25 27/27/27 40/40/40 37/37/37
f 23/23/23 22/22/22 45/45/45 39/39/39
f 18/18/18 1/1/1 4/4/4 46/46/46
f 15/15/15 14/14/14 21/21/21 47/47/47
f 36/36/36 38/38/38 48/48/48 49/49/49
f 37/37/37 40/40/40 50/50/50 51/51/51
f 39/39/39 45/45/45 52/52/52 53/53/53
f 2/2/2 36/36/36 49/49/49 43/43/43
f 38/38/38 37/37/37 51/51/51 48/48/48
f 40/40/40 39/39/39 53/53/53 50/50/50
f 49/49/49 48/48/48 54/54/54 55/55/55
f 51/51/51 50/50/50 56/56/56 57/57/57
f 53/53/53 52/52/52 58/58/58 59/59/59
f 43/43/43 49/49/49 55/55/55 60/60/60
f 48/48/48 51/51/51 57/57/57 54/54/54
f 50/50/50 53/53/53 59/59/59 56/56/56
f 19/19/19 61/61/61 62/62/62 20/20/20
f 45/45/45 22/22/22 63/63/63 64/64/64
f 60/60/60 55/55/55 65/65/65 66/66/66
f 54/54/54 57/57/57 67/67/67 68/68/68
f 56/56/56 59/59/59 69/69/69 70/70/70
f 29/29/29 17/17/17 71/71/71 30/30/30
f 72/72/72 73/73/73 74/74/74 75/75/75
f 55/55/55 54/54/54 68/68/68 65/65/65
f 57/57/57 56/56/56 70/70/70 67/67/67
f 59/59/59 58/58/58 76/76/76 69/69/69
f 68/77/68 67/78/67 77/79/77 78/80/78
f 70/81/70 69/82/69 79/83/79 80/84/80
f 81/85/81 28/28/28 31/31/31 82/86/82
f 52/52/52 45/45/45 64/64/64 83/87/83
f 65/88/65 68/77/68 78/80/78 84/89/84
f 67/78/67 70/81/70 80/84/80 77/79/77
f 69/82/69 76/90/76 41/41/41 79/83/79
f 66/91/66 65/88/65 84/89/84 72/72/72
f 17/17/17 18/18/18 46/46/46 71/71/71
f 84/89/84 78/80/78 85/92/85 86/93/86
f 77/79/77 80/84/80 87/94/87 88/95/88
f 79/83/79 41/41/41 33/33/33 89/96/89
f 72/72/72 84/89/84 86/93/86 73/73/73
f 78/80/78 77/79/77 88/95/88 85/92/85
f 80/84/80 79/83/79 89/96/89 87/94/87
f 22/22/22 15/15/15 47/47/47 63/63/63
f 88/95/88 87/94/87 90/97/90 91/98/91
f 89/96/89 33/33/33 32/32/32 92/99/92
f 73/73/73 86/93/86 93/100/93 81/85/81
f 85/92/85 88/95/88 91/98/91 94/101/94
f 87/94/87 89/96/89 92/99/92 90/97/90
f 43/43/43 60/60/60 95/102/95 44/44/44
f 66/91/66 72/72/72 75/75/75 96/103/96
f 86/93/86 85/92/85 94/101/94 93/100/93
f 81/85/81 93/100/93 97/104/97 28/28/28
f 94/101/94 91/98/91 98/105/98 99/106/99
f 90/97/90 92/99/92 100/107/100 101/108/101
f 60/60/60 66/66/66 96/109/96 95/102/95
f 76/76/76 58/58/58 102/110/102 103/111/103
f 93/100/93 94/101/94 99/106/99 97/104/97
f 91/98/91 90/97/90 101/108/101 98/105/98
f 92/99/92 32/32/32 61/61/61 100/107/100
f 101/108/101 100/107/100 104/112/104 105/113/105
f 61/61/61 32/32/32 35/35/35 62/62/62
f 58/58/58 52/52/52 83/87/83 102/110/102
f 97/104/97 99/106/99 106/114/106 107/115/107
f 98/105/98 101/108/101 105/113/105 108/116/108
f 100/107/100 61/61/61 19/19/19 104/112/104
f 28/28/28 97/104/97 107/115/107 29/29/29
f 99/106/99 98/105/98 108/116/108 106/114/106
f 73/73/73 81/85/81 82/86/82 74/74/74
f 107/115/107 106/114/106 6/6/6 5/5/5
f 108/116/108 105/113/105 10/10/10 9/9/9
f 104/112/104 19/19/19 14/14/14 13/13/13
f 29/29/29 107/115/107 5/5/5 17/17/17
f 106/114/106 108/116/108 9/9/9 6/6/6
f 105/113/105 104/112/104 13/13/13 10/10/10
f 41/41/41 76/90/76 103/117/103 42/42/42
